# xmcd
# 
# Track frame offsets:
#     150
#     10608
#     23720
#     37328
#     50535
#     62123
#     74653
#     87218
#     100370
#     114540
#     127138
# 
# Disc length: 1903
# 
# Revision: 1
# Processed by: cddbd v1.5.2PL0 Copyright (c) Steve Scherf et al.
# Submitted via: fre:ac v1.0.17
# 
DISCID=9c076d0b
DTITLE=Various Artist - Motown Legends, Volume 3
DYEAR=1995
DGENRE=R&B
TTITLE0=Marvin Gaye and Tammi Terrell - Ain't Nothing Like The Real Thing
TTITLE1=Diana Ross and The Supremes - Stop! In The Name Of Love
TTITLE2=Jr. Walker and The All Stars - Shotgun
TTITLE3=Stevie Wonder - Uptight (Everything's Alright)
TTITLE4=The Temptations - Ain't Too Proud To Beg
TTITLE5=Gladys Knight and The Pips - I Heard It Through The Grapevine
TTITLE6=Smokey Robinson and The Miracles - I Second That Emotion
TTITLE7=The Contours - Do You Love Me
TTITLE8=Diana Ross and The Supremes with The Temptations - I'm Gonna Make You Love Me
TTITLE9=The Temptations - I Wish It Would Rain
TTITLE10=Diana Ross and The Supremes - Someday We'll Be Together
EXTD=
EXTT0=
EXTT1=
EXTT2=
EXTT3=
EXTT4=
EXTT5=
EXTT6=
EXTT7=
EXTT8=
EXTT9=
EXTT10=
PLAYORDER=
